# xmcd
#
# Track frame offsets:
#	150
#	26061
#	49330
#	59577
#	73349
#	93804
#	97819
#	116904
#	129072
#	149018
#	170006
#
# Disc length: 2599 seconds
#
# Revision: 1
# Processed by: cddbd v1.4PL0 Copyright (c) Steve Scherf et al.
# Submitted via: audiograbber 1.81.01
#
DISCID=a20a250b
DTITLE=Gurol Agirbas - Bas Sarkilari 2
DYEAR=1900
DGENRE=Blues
TTITLE0=Eylul
TTITLE1=Col
TTITLE2=Selpe
TTITLE3=Uyku
TTITLE4=Unison
TTITLE5=Benimle Oynarmisin
TTITLE6=108
TTITLE7=Balcova
TTITLE8=Bodrum Blues
TTITLE9=Gece Yarisi
TTITLE10=Kis - Koyunbaba
EXTD=
EXTT0=
EXTT1=
EXTT2=
EXTT3=
EXTT4=
EXTT5=
EXTT6=
EXTT7=
EXTT8=
EXTT9=
EXTT10=
PLAYORDER=
